<svg xmlns="http://www.w3.org/2000/svg" viewBox="0 92 790 426" font-family="var(--kn-serif,Georgia,serif)">
  <defs>
    <path id="sh06c-tip" d="M 0 0 L -14 -6 L -9.5 0 L -14 6 Z" fill="var(--kn-ink,#1a1a1a)"/>
  </defs>
  <g fill="none" stroke="var(--kn-ink,#1a1a1a)" stroke-width="1.6">
    <!-- шестиугольник -->
    <polygon points="200,300 294,134 487,134 581,300 487,468 294,468"/>
    <!-- горизонталь через точки весов -->
    <line x1="0" y1="300" x2="781" y2="300"/>
    <!-- стрелки-острия у вершин -->
    <path d="M 173 287 L 199 300 L 173 313 Z"/>
    <path d="M 608 287 L 582 300 L 608 313 Z"/>
  </g>

  <!-- завитки -->
  <g fill="none" stroke="var(--kn-ink,#1a1a1a)" stroke-width="2.6" stroke-linecap="round">
    <!-- 1. слева вверху: змейка вверх-вправо -->
    <path d="M 170 188 C 164 176 178 170 183 158 C 188 146 172 140 178 128 C 184 117 200 110 214 105"/>
    <!-- 2. справа вверху: молния вниз-вправо -->
    <path d="M 573 113 L 583 123 L 572 126 L 585 138 L 574 141 L 583 151 C 592 161 600 170 607 176"/>
    <!-- 3. слева: спираль вверх-вправо -->
    <path d="M 44 252 C 36 250 34 241 41 237 C 50 232 60 240 58 250 C 55 262 40 265 32 256 C 22 244 30 226 47 223 C 60 221 71 224 77 217"/>
    <!-- 4. справа: завиток вниз -->
    <path d="M 733 268 C 723 262 717 271 725 275 C 738 281 752 288 760 298 C 764 303 765 306 766 309"/>
    <!-- 5. слева внизу: завиток вверх-влево -->
    <path d="M 80 373 C 68 377 54 373 50 364 C 47 357 56 352 61 357 C 66 362 58 368 46 363 C 34 358 26 351 20 348"/>
    <!-- 6. справа: крючок вниз-влево -->
    <path d="M 756 320 C 761 332 757 347 747 355 C 741 360 736 364 731 366"/>
    <!-- 7. снизу слева: завиток вверх -->
    <path d="M 227 474 C 214 478 200 470 200 458 C 200 448 212 444 216 452 C 220 460 210 466 198 460 C 184 452 176 432 173 416"/>
    <!-- 8. снизу справа: завиток вниз-влево -->
    <path d="M 634 406 C 620 402 604 408 598 420 C 592 432 602 442 612 436 C 622 430 614 418 600 420 C 586 422 578 444 575 456"/>
  </g>
  <g>
    <use href="#sh06c-tip" transform="translate(231,102) rotate(-20)"/>
    <use href="#sh06c-tip" transform="translate(615,180) rotate(52)"/>
    <use href="#sh06c-tip" transform="translate(83,215) rotate(-18)"/>
    <use href="#sh06c-tip" transform="translate(768,312) rotate(76)"/>
    <use href="#sh06c-tip" transform="translate(12,346) rotate(192)"/>
    <use href="#sh06c-tip" transform="translate(724,368) rotate(115)"/>
    <use href="#sh06c-tip" transform="translate(170,404) rotate(-99)"/>
    <use href="#sh06c-tip" transform="translate(571,467) rotate(110)"/>
  </g>

  <g fill="var(--kn-ink,#1a1a1a)" font-size="18">
    <text x="395" y="113" text-anchor="middle">Чаша Света</text>
    <text x="389" y="505" text-anchor="middle">Чаша Тьмы</text>
    <text x="204" y="252" text-anchor="end">Свет</text>
    <text x="204" y="271" text-anchor="end">Наливается</text>
    <text x="202" y="340" text-anchor="end">Тьма</text>
    <text x="202" y="359" text-anchor="end">Выливается</text>
    <text x="587" y="252">Свет</text>
    <text x="587" y="271">Выливается</text>
    <text x="588" y="341">Тьма</text>
    <text x="588" y="360">Наливается</text>
  </g>
</svg>
