<svg xmlns="http://www.w3.org/2000/svg" viewBox="0 0 1290 600" width="1290" height="600" role="img">
  <g stroke="var(--kn-ink,#1a1a1a)" fill="none" stroke-width="2.4" stroke-linejoin="round" stroke-linecap="round">

    <!-- сжатый и растянутый чертёж: шесть вершин, средняя линия и два длинных пересечения -->
    <!-- обвод -->
    <path d="M264 149 L408 79 L896 90 L1038 153 L900 213 L412 202 Z"/>
    <!-- средняя линия остриё—остриё -->
    <path d="M264 149 L1038 153"/>
    <!-- длинные пересекающиеся линии через середину -->
    <path d="M408 79 L900 213"/>
    <path d="M412 202 L896 90"/>
    <!-- лучи, выходящие за вершины -->
    <path d="M408 79 L256 51"/>
    <path d="M412 202 L262 248"/>
    <path d="M896 90 L1035 55"/>
    <path d="M900 213 L1045 252"/>

    <!-- пунктиры к остриям -->
    <path d="M264 149 L176 148" stroke-dasharray="11 9"/>
    <path d="M1038 153 L1126 153" stroke-dasharray="11 9"/>

    <!-- два скрещённых кинжала -->
    <path fill="var(--kn-ink,#1a1a1a)" fill-rule="evenodd" stroke="none" d="M 845.6 456.2 844.4 463.8 849.4 474.4 849.4 463.8Z M 501.2 450.6 498.1 456.2 496.9 470.0 499.4 468.8 503.1 458.8Z M 810.0 423.1 799.4 425.0 747.5 448.8 808.1 426.2Z M 536.2 418.8 576.9 438.1 601.2 446.2 580.6 435.0 546.9 420.6Z M 825.6 417.5 825.0 420.6 839.4 450.0 841.9 445.0 828.8 417.5Z M 520.0 413.1 516.2 412.5 504.4 440.0 506.2 443.8 508.8 443.1 520.6 415.6Z M 796.9 356.2 800.6 365.6 805.6 368.1Z M 545.6 350.0 535.6 363.1 541.9 360.0Z M 1028.1 344.4 1013.1 350.6 1016.2 363.1 1030.6 360.0 1031.2 354.4Z M 293.1 340.6 290.6 346.2 290.6 356.2 306.2 358.8 309.4 345.6Z M 1026.2 338.1 1023.1 337.5 1011.9 342.5 1010.6 345.0 1020.6 342.5Z M 295.0 333.8 300.6 338.8 311.2 341.2 308.1 337.5Z M 1015.0 318.8 1008.8 315.6 998.1 325.6 1002.5 328.8 1008.1 323.8 1015.6 321.2Z M 305.6 314.4 313.8 316.9 320.0 322.5 323.8 319.4 310.6 310.0Z M 268.8 335.0 270.0 350.6 282.5 363.8 300.6 365.6 348.1 375.6 361.2 388.8 366.2 390.6 391.9 390.6 411.9 406.2 431.9 406.9 449.4 421.2 455.0 423.1 473.1 423.1 485.0 435.0 494.4 438.8 487.5 482.5 483.1 494.4 483.1 501.2 485.6 503.8 490.0 503.1 496.2 496.9 514.4 451.9 517.5 448.8 526.2 450.0 540.0 456.9 546.9 455.6 607.5 481.9 609.4 484.4 606.9 486.9 552.5 515.0 521.9 525.0 473.1 536.9 478.1 540.6 506.2 548.1 557.5 555.0 590.0 554.4 617.5 548.8 648.1 536.9 677.5 520.0 715.0 539.4 743.8 551.2 775.6 557.5 826.2 555.6 875.6 543.8 878.1 541.9 876.2 538.8 841.9 531.9 798.1 516.9 751.2 491.2 746.2 485.6 802.5 459.4 809.4 461.2 830.0 452.5 834.4 457.5 851.9 497.5 859.4 506.9 863.1 508.1 866.2 506.2 866.9 500.6 860.6 486.2 856.2 458.8 850.6 447.5 851.9 445.0 861.9 440.0 873.1 428.8 888.1 429.4 893.8 426.9 908.1 413.8 913.1 411.9 920.0 413.8 927.5 411.9 943.8 397.5 965.6 396.2 982.5 381.9 1023.1 370.0 1036.9 369.4 1046.2 361.2 1051.2 348.8 1046.9 327.5 1036.9 311.9 1026.9 305.0 1013.1 303.8 1007.5 305.6 985.0 322.5 960.0 323.1 926.2 330.6 896.9 342.5 848.1 369.4 830.6 370.6 818.8 374.4 811.9 360.6 795.0 340.0 789.4 327.5 784.4 324.4 781.2 325.6 780.0 333.1 785.0 348.8 800.0 380.0 799.4 384.4 761.2 402.5 758.1 409.4 751.2 407.5 746.9 414.4 740.0 412.5 736.2 418.8 729.4 417.5 725.6 423.8 719.4 421.9 715.6 428.1 709.4 426.2 708.1 430.0 703.8 433.1 698.1 431.2 697.5 435.0 694.4 437.5 688.1 435.6 684.4 441.9 674.4 439.4 667.5 441.9 663.8 435.0 656.2 436.9 653.1 430.0 645.6 431.9 641.2 424.4 633.8 426.9 630.6 419.4 623.1 421.9 619.4 414.4 612.5 416.9 608.1 409.4 601.2 411.9 597.5 405.0 590.0 406.9 587.5 404.4 587.5 400.6 583.8 397.5 544.4 380.0 561.2 333.8 561.2 323.8 558.1 320.0 551.9 321.9 545.0 336.9 522.5 368.1 506.2 364.4 493.8 364.4 443.1 338.1 409.4 325.0 373.1 316.9 335.0 315.6 308.1 298.1 293.8 299.4 285.6 303.1 276.2 314.4Z M 673.8 516.2 670.6 520.0 638.1 536.9 593.8 550.0 541.2 550.0 496.2 541.2 502.5 537.5 525.6 535.0 565.0 538.1 596.2 534.4 630.0 523.8 656.9 508.8 663.8 510.0Z M 653.1 505.0 642.5 513.1 615.6 525.0 589.4 531.9 582.5 531.9 578.8 528.8 585.6 522.5 618.1 509.4 638.1 498.8 648.1 501.2Z M 623.8 490.6 607.5 502.5 592.5 510.0 590.0 509.4 619.4 490.6Z M 800.6 452.5 800.6 455.6 740.6 482.5 725.6 473.8 733.8 467.5 785.0 445.0 791.9 445.0Z M 548.8 450.0 553.8 443.8 561.2 440.6 575.0 445.0 651.2 480.6 726.9 524.4 761.9 536.9 786.9 540.6 833.1 539.4 858.1 543.1 838.8 549.4 801.9 553.8 766.2 552.5 750.0 549.4 713.8 535.0 648.1 497.5 549.4 452.5Z M 828.1 446.9 825.6 450.0 808.8 456.9 795.0 443.1 784.4 441.2 720.6 469.4 710.6 463.1 711.9 459.4 804.4 418.1 815.6 419.4 820.0 425.0 820.0 428.1 813.8 433.8 821.2 432.5 819.4 436.2 803.8 443.1 805.6 448.1 811.2 451.2 825.6 444.4Z M 531.2 414.4 544.4 414.4 623.8 448.8 690.6 483.1 738.1 510.6 775.0 526.9 777.5 531.9 773.8 534.4 766.2 534.4 734.4 524.4 705.6 509.4 658.8 480.6 564.4 437.5 553.8 438.8 540.6 452.5 530.6 450.0 519.4 444.4 518.8 441.9 521.2 440.0 539.4 446.9 545.0 439.4 533.1 433.1 537.5 430.6 526.2 423.8Z M 580.0 416.9 586.2 418.8 584.4 415.0 585.6 410.0 592.5 412.5 592.5 419.4 595.6 423.1 595.0 415.6 602.5 416.2 606.2 426.9 605.6 421.2 612.5 420.6 615.6 423.1 615.0 428.8 616.9 431.2 617.5 425.6 625.6 426.2 628.1 430.6 635.6 430.6 638.1 433.1 638.8 440.6 638.8 436.2 642.5 434.4 648.1 436.9 648.8 443.1 651.9 439.4 658.8 441.2 660.6 451.2 662.5 444.4 668.8 445.6 671.2 455.6 672.5 449.4 681.2 451.9 688.8 450.0 713.8 476.9 750.6 504.4 747.5 504.4 719.4 486.2 686.9 456.9 678.8 462.5 671.9 462.5 584.4 422.5Z M 802.5 390.6 800.6 393.1 769.4 406.9 770.0 418.1 763.1 426.2 699.4 453.8 693.8 449.4 694.4 442.5 699.4 440.6 701.9 443.1 701.2 446.9 705.6 436.9 710.0 435.6 712.5 439.4 714.4 433.8 720.6 431.9 722.5 436.2 726.9 427.5 731.2 426.9 733.1 432.5 736.9 423.1 741.2 421.9 743.8 428.8 745.6 420.6 750.0 417.5 753.8 419.4 753.8 423.8 756.2 420.6 756.2 415.6 760.0 413.1 763.8 415.0 763.8 419.4 766.2 416.2 764.4 408.8 766.2 404.4 800.0 388.8Z M 541.9 385.6 550.0 386.9 581.9 401.2 583.1 404.4 580.0 412.5 577.5 410.6 576.9 402.5 546.9 390.0Z M 972.5 376.2 963.8 387.5 939.4 390.0 923.1 404.4 904.4 405.6 887.5 420.0 868.8 420.0 861.9 422.5 868.1 416.9 886.2 416.2 897.5 404.4 904.4 400.6 920.0 400.6 936.9 386.2 942.5 384.4 960.6 384.4Z M 354.4 369.4 368.1 379.4 392.5 378.8 402.5 383.1 413.1 393.8 428.1 393.1 436.2 395.6 445.0 401.2 452.5 410.0 475.6 412.5 485.0 421.9 483.8 423.1 479.4 417.5 473.1 414.4 451.9 414.4 435.0 400.0 410.6 397.5 393.1 383.8 368.8 382.5 362.5 379.4Z M 971.2 340.6 944.4 347.5 910.6 360.0 858.8 387.5 851.2 389.4 840.0 388.1 856.2 383.8 888.8 364.4 921.9 349.4 947.5 341.9Z M 363.8 335.6 376.2 334.4 423.1 346.9 449.4 358.8 480.6 376.9 500.0 383.1 482.5 381.9 435.6 358.1 400.6 345.0Z M 783.8 328.8 786.9 330.6 795.6 346.9 811.9 366.9 828.8 400.6 835.6 421.9 851.9 456.9 857.5 487.5 863.1 501.2 861.2 504.4 851.9 492.5 784.4 340.0 782.5 332.5Z M 556.2 324.4 556.2 338.1 496.2 488.8 491.2 496.2 485.6 499.4 491.9 477.5 493.8 453.1 530.0 362.5 544.4 344.4 552.5 327.5Z M 1008.8 310.0 1012.5 310.6 1022.5 320.6 1029.4 331.9 1035.6 355.6 1035.0 363.1 1031.9 365.6 1013.8 368.1 1009.4 351.9 1002.5 336.9 991.9 325.6 993.8 321.9Z M 1018.1 308.1 1025.6 308.8 1027.5 310.6 1025.6 314.4 1035.6 316.9 1041.2 324.4 1041.2 326.9 1036.2 331.2 1043.8 333.1 1039.4 338.8 1042.5 348.8 1046.9 350.0 1041.2 359.4 1038.8 357.5 1033.8 335.6 1026.2 321.2 1017.5 310.6Z M 312.5 304.4 317.5 310.0 332.5 318.8 323.1 328.1 318.1 336.9 313.1 351.9 311.9 363.1 307.5 365.0 289.4 362.5 286.2 359.4 285.0 351.9 289.4 331.9 301.2 311.2 307.5 305.0Z M 301.2 301.9 302.5 304.4 288.1 325.6 283.1 340.6 281.2 356.9 278.1 357.5 271.9 349.4 273.1 345.6 276.9 346.2 279.4 336.9 278.8 333.8 274.4 330.6 281.9 327.5 276.2 323.8 276.9 320.6 283.8 311.9 291.2 310.0 291.2 305.0Z"/>
  </g>

  <g fill="var(--kn-ink,#1a1a1a)" font-family="var(--kn-serif,Georgia,serif)" font-size="34">
    <text x="158" y="161" text-anchor="end">Остриё</text>
    <text x="1138" y="165" text-anchor="start">Остриё</text>
  </g>
</svg>
